<svg id="svg" version="1.1" xmlns="http://www.w3.org/2000/svg" xmlns:xlink="http://www.w3.org/1999/xlink" width="400" height="400" viewBox="0, 0, 400,400"><g id="svgg"><path id="path0" d="M70.499 196.100 L 70.600 260.600 100.000 260.600 L 129.400 260.600 129.501 196.100 L 129.602 131.600 100.000 131.600 L 70.398 131.600 70.499 196.100 M146.673 137.861 C 146.523 138.011,146.400 164.203,146.400 196.067 L 146.400 254.000 157.997 254.000 L 169.594 254.000 169.697 227.500 L 169.800 201.000 175.200 201.000 L 180.600 201.000 180.703 227.500 L 180.806 254.000 192.404 254.000 L 204.003 254.000 203.901 195.900 L 203.800 137.800 192.400 137.800 L 181.000 137.800 180.896 158.500 L 180.793 179.200 175.200 179.200 L 169.607 179.200 169.504 158.500 L 169.400 137.800 158.173 137.694 C 151.998 137.636,146.823 137.711,146.673 137.861 M213.370 138.135 C 212.767 139.706,213.474 231.033,214.109 233.616 C 217.971 249.321,227.041 255.913,243.655 255.091 C 258.737 254.345,267.075 246.413,269.190 230.800 C 269.521 228.356,269.615 214.804,269.525 182.600 L 269.400 137.800 258.500 137.694 L 247.600 137.587 247.583 179.494 C 247.561 230.263,247.486 231.514,244.314 233.387 C 241.401 235.108,238.124 234.029,236.663 230.866 L 235.800 229.000 235.600 183.400 L 235.400 137.800 224.490 137.694 C 215.553 137.606,213.542 137.686,213.370 138.135 M279.467 137.867 C 279.320 138.013,279.200 164.214,279.200 196.091 L 279.200 254.049 298.300 253.925 L 317.400 253.800 320.305 252.738 C 331.395 248.685,336.001 238.287,335.999 217.303 C 335.998 201.366,333.248 194.165,325.757 190.491 C 323.132 189.204,323.127 189.157,325.500 188.082 C 332.637 184.848,334.583 180.114,334.581 166.000 C 334.577 147.273,330.364 140.446,317.402 138.165 C 314.039 137.573,280.028 137.306,279.467 137.867 M111.784 139.369 C 114.916 141.205,115.888 146.005,113.921 149.924 C 112.577 152.600,110.800 153.400,106.200 153.400 L 102.600 153.400 102.483 150.300 L 102.366 147.200 104.955 147.200 C 107.674 147.200,108.982 146.539,108.540 145.388 C 107.746 143.319,103.570 144.950,99.800 148.802 C 92.219 156.547,82.980 155.000,83.010 145.991 C 83.027 140.998,85.509 138.400,90.263 138.400 L 92.400 138.400 92.400 141.600 L 92.400 144.800 91.300 144.806 C 89.826 144.814,89.091 145.335,89.265 146.248 C 89.611 148.063,91.124 147.349,95.109 143.493 C 100.482 138.294,101.298 137.923,106.736 138.197 C 109.375 138.331,110.430 138.576,111.784 139.369 M111.400 156.239 C 113.839 157.518,114.347 158.742,114.652 164.070 C 114.797 166.609,114.796 169.161,114.650 169.743 L 114.385 170.800 98.792 170.800 L 83.200 170.800 83.201 165.300 C 83.202 155.376,83.597 155.126,99.000 155.287 C 109.070 155.392,109.908 155.457,111.400 156.239 M309.878 155.982 C 311.850 157.184,312.080 158.600,311.931 168.600 C 311.751 180.708,311.180 181.754,304.888 181.517 L 301.800 181.400 301.695 168.300 L 301.589 155.200 305.095 155.201 C 307.863 155.203,308.869 155.367,309.878 155.982 M90.600 161.939 C 89.765 162.124,89.361 162.478,89.272 163.103 L 89.144 164.000 98.749 164.000 C 108.629 164.000,109.611 163.841,108.234 162.462 C 107.532 161.758,93.310 161.336,90.600 161.939 M114.557 173.033 C 114.896 173.916,114.850 177.708,114.494 178.235 C 114.332 178.474,113.210 178.834,112.000 179.035 C 108.612 179.597,108.578 182.051,111.953 182.463 C 114.512 182.775,114.788 183.119,114.788 186.000 C 114.788 189.621,115.271 189.507,104.600 188.404 C 102.620 188.199,99.110 187.851,96.800 187.631 C 94.490 187.410,90.485 187.007,87.900 186.735 L 83.200 186.240 83.200 180.795 L 83.200 175.350 88.100 174.851 C 90.795 174.576,94.530 174.192,96.400 173.998 C 98.270 173.803,102.140 173.439,105.000 173.189 C 107.860 172.939,110.560 172.683,111.000 172.621 C 113.238 172.307,114.327 172.433,114.557 173.033 M99.572 180.034 C 92.287 180.541,92.880 181.527,100.500 181.577 C 103.706 181.598,104.000 181.535,104.000 180.824 C 104.000 179.752,103.891 179.733,99.572 180.034 M114.320 190.480 C 114.990 191.150,114.990 202.450,114.320 203.120 C 113.761 203.679,84.560 203.816,83.689 203.264 C 83.303 203.018,83.205 201.438,83.289 196.770 L 83.400 190.600 86.400 190.600 L 89.400 190.600 89.600 193.600 L 89.800 196.600 92.400 196.600 L 95.000 196.600 95.200 193.800 L 95.400 191.000 98.400 191.000 L 101.400 191.000 101.600 193.800 L 101.800 196.600 104.800 196.600 L 107.800 196.600 107.916 193.526 C 108.048 190.052,107.972 190.123,111.620 190.046 C 112.875 190.020,114.049 190.209,114.320 190.480 M309.572 200.301 C 312.956 202.027,313.586 204.674,313.592 217.200 C 313.597 229.008,313.021 231.233,309.510 232.985 C 308.000 233.738,304.138 234.222,302.638 233.845 L 301.600 233.585 301.600 216.859 C 301.600 207.660,301.720 200.013,301.867 199.867 C 302.457 199.276,308.197 199.600,309.572 200.301 M95.079 205.401 C 96.193 205.732,97.326 206.269,97.596 206.596 C 98.027 207.114,98.215 207.089,99.098 206.394 C 100.019 205.670,100.731 205.600,107.207 205.600 C 115.181 205.600,114.789 205.435,114.789 208.800 C 114.789 212.116,115.110 211.968,107.661 212.091 C 101.696 212.189,100.996 212.272,100.876 212.900 C 100.752 213.544,101.272 213.600,107.357 213.600 C 113.488 213.600,114.002 213.657,114.386 214.374 C 114.838 215.218,114.933 218.464,114.548 219.900 L 114.307 220.800 98.753 220.800 L 83.200 220.800 83.200 214.606 L 83.200 208.413 84.311 207.169 C 86.180 205.077,91.208 204.252,95.079 205.401 M89.867 211.867 C 88.818 212.916,89.660 213.600,92.000 213.600 C 94.444 213.600,95.000 213.160,93.920 212.080 C 93.414 211.574,90.322 211.411,89.867 211.867 M114.320 223.280 C 114.822 223.782,114.963 227.150,114.548 228.700 C 114.310 229.588,114.220 229.600,107.527 229.600 L 100.747 229.600 100.873 230.700 L 101.000 231.800 107.656 231.909 C 115.232 232.034,114.784 231.789,114.795 235.820 C 114.803 238.951,115.595 238.800,99.153 238.800 C 81.670 238.800,83.200 239.148,83.200 235.168 L 83.200 232.023 88.700 231.911 L 94.200 231.800 94.200 230.800 L 94.200 229.800 88.700 229.689 L 83.200 229.577 83.200 226.455 C 83.200 224.738,83.320 223.213,83.467 223.067 C 83.981 222.552,113.798 222.758,114.320 223.280 M89.600 241.800 L 89.600 243.600 101.720 243.600 C 110.613 243.600,113.968 243.728,114.320 244.080 C 114.821 244.581,114.964 247.949,114.549 249.494 L 114.310 250.389 102.055 250.494 L 89.800 250.600 89.600 252.200 L 89.400 253.800 86.300 253.917 L 83.200 254.034 83.200 247.017 L 83.200 240.000 86.400 240.000 L 89.600 240.000 89.600 241.800 " stroke="none" fill="#e3e3db" fill-rule="evenodd"></path><path id="path1" d="M0.000 200.000 L 0.000 400.000 200.000 400.000 L 400.000 400.000 400.000 200.000 L 400.000 0.000 200.000 0.000 L 0.000 0.000 0.000 200.000 M130.200 196.000 L 130.200 261.000 100.200 261.000 L 70.200 261.000 70.097 196.400 C 70.041 160.870,70.081 131.574,70.186 131.297 C 70.337 130.899,76.571 130.816,100.288 130.897 L 130.200 131.000 130.200 196.000 M169.904 157.900 L 170.007 178.800 175.200 178.800 L 180.393 178.800 180.496 157.900 L 180.600 137.000 192.291 136.894 L 203.982 136.788 204.200 137.694 C 204.321 138.192,204.370 164.700,204.310 196.600 L 204.200 254.600 192.400 254.600 L 180.600 254.600 180.497 228.422 C 180.417 208.089,180.283 202.173,179.897 201.928 C 179.250 201.517,171.150 201.517,170.503 201.928 C 170.117 202.173,169.983 208.089,169.903 228.422 L 169.800 254.600 158.000 254.600 L 146.200 254.600 146.090 196.600 C 146.030 164.700,146.079 138.192,146.200 137.694 L 146.418 136.788 158.109 136.894 L 169.800 137.000 169.904 157.900 M235.986 137.574 C 236.264 138.094,236.400 152.846,236.400 182.554 C 236.400 229.144,236.425 229.818,238.233 231.967 C 240.099 234.184,244.061 233.789,245.372 231.255 C 246.665 228.753,246.784 224.584,246.798 181.200 C 246.806 157.330,246.957 137.572,247.134 137.294 C 247.383 136.900,249.996 136.811,258.828 136.894 L 270.200 137.000 270.200 184.000 L 270.200 231.000 269.300 234.782 C 265.787 249.540,255.222 256.901,239.065 255.848 C 222.890 254.793,214.480 245.976,212.828 228.340 C 212.251 222.175,212.238 138.651,212.814 137.574 C 213.208 136.837,213.764 136.800,224.400 136.800 C 235.036 136.800,235.592 136.837,235.986 137.574 M319.997 137.962 C 331.939 141.528,336.097 149.793,335.485 168.747 C 335.136 179.539,332.396 185.677,326.799 188.200 C 324.843 189.082,324.824 189.273,326.604 190.121 C 333.777 193.542,336.604 201.315,336.595 217.600 C 336.583 240.637,330.971 251.384,317.499 254.167 C 314.381 254.811,280.587 255.154,279.033 254.557 C 278.180 254.230,278.049 138.117,278.900 137.251 C 279.901 136.233,316.317 136.863,319.997 137.962 M88.068 139.394 C 82.565 141.111,81.729 149.547,86.808 152.099 C 90.749 154.079,94.609 152.885,99.592 148.142 C 103.811 144.128,107.063 142.823,108.720 144.480 C 110.295 146.055,108.956 147.515,105.786 147.677 L 103.400 147.800 103.281 150.305 C 103.136 153.353,103.259 153.429,107.458 152.868 C 112.403 152.207,114.064 150.380,114.094 145.568 C 114.124 140.835,111.661 138.800,105.902 138.800 C 101.654 138.800,100.438 139.401,96.200 143.596 C 91.583 148.166,89.191 149.096,88.556 146.568 C 88.238 145.299,89.005 144.400,90.406 144.400 C 91.669 144.400,92.000 143.819,92.000 141.600 C 92.000 138.645,91.452 138.338,88.068 139.394 M88.892 155.960 C 84.917 156.649,83.874 158.475,83.669 165.100 L 83.518 170.000 98.791 170.000 L 114.064 170.000 113.932 164.828 C 113.713 156.235,113.084 155.830,99.800 155.732 C 94.740 155.694,89.831 155.797,88.892 155.960 M302.603 156.048 C 302.485 156.356,302.436 162.007,302.494 168.604 L 302.600 180.600 305.523 180.718 C 310.757 180.929,311.200 179.905,311.200 167.576 C 311.200 158.823,311.014 157.621,309.505 156.632 C 308.163 155.753,302.888 155.307,302.603 156.048 M108.593 161.850 C 108.953 162.210,109.189 162.970,109.122 163.550 L 109.000 164.600 99.028 164.707 C 88.641 164.819,88.421 164.786,88.406 163.129 C 88.390 161.339,89.138 161.200,98.800 161.200 C 106.708 161.200,108.031 161.288,108.593 161.850 M97.400 174.562 C 90.360 175.255,84.375 175.963,84.100 176.135 C 83.413 176.564,83.396 185.026,84.080 185.450 C 84.505 185.712,101.756 187.527,110.721 188.253 L 114.041 188.521 113.921 185.961 L 113.800 183.400 111.810 183.274 C 107.243 182.986,107.483 178.790,112.100 178.196 L 114.000 177.951 114.000 175.575 L 114.000 173.200 112.100 173.251 C 111.055 173.280,104.440 173.870,97.400 174.562 M104.800 180.800 L 104.800 182.400 103.100 182.403 C 100.764 182.407,89.041 181.536,88.827 181.343 C 87.863 180.473,94.662 179.403,102.100 179.254 L 104.800 179.200 104.800 180.800 M108.717 193.900 L 108.600 197.000 104.800 197.000 L 101.000 197.000 100.882 194.300 L 100.763 191.600 98.200 191.600 L 95.637 191.600 95.518 194.300 L 95.400 197.000 93.017 197.122 C 89.007 197.328,88.855 197.221,88.718 194.097 L 88.600 191.400 86.200 191.400 L 83.800 191.400 83.689 197.100 L 83.578 202.800 98.789 202.800 L 114.000 202.800 114.000 196.800 L 114.000 190.800 111.417 190.800 L 108.834 190.800 108.717 193.900 M302.400 216.800 L 302.400 233.200 304.454 233.200 C 311.994 233.200,312.945 231.175,312.736 215.563 C 312.551 201.750,311.901 200.400,305.438 200.400 L 302.400 200.400 302.400 216.800 M87.934 205.977 C 84.276 206.690,83.513 208.364,83.687 215.292 L 83.800 219.800 98.900 219.905 L 114.000 220.010 114.000 217.205 L 114.000 214.400 106.973 214.400 L 99.947 214.400 100.073 213.309 C 100.279 211.537,101.516 211.212,108.100 211.206 L 114.000 211.200 114.000 208.600 L 114.000 206.000 107.860 206.000 C 102.164 206.000,99.200 206.410,99.200 207.196 C 99.200 207.967,97.820 207.970,97.002 207.202 C 95.420 205.716,91.792 205.226,87.934 205.977 M94.600 211.600 C 94.930 211.874,95.200 212.616,95.200 213.249 L 95.200 214.400 92.000 214.400 L 88.800 214.400 88.800 212.987 C 88.800 210.916,92.662 209.992,94.600 211.600 M83.681 226.100 L 83.800 228.600 88.984 228.713 C 94.488 228.832,94.783 228.941,94.794 230.851 C 94.804 232.525,94.089 232.766,88.775 232.887 L 83.800 233.000 83.681 235.500 L 83.562 238.000 98.781 238.000 L 114.000 238.000 114.000 235.400 L 114.000 232.800 107.500 232.794 C 100.110 232.787,99.895 232.722,100.072 230.559 L 100.200 229.000 107.100 228.891 L 114.000 228.781 114.000 226.191 L 114.000 223.600 98.781 223.600 L 83.562 223.600 83.681 226.100 M83.867 241.067 C 82.994 241.939,83.606 253.186,84.538 253.420 C 86.987 254.035,88.591 253.492,88.733 252.002 C 88.967 249.528,88.575 249.600,101.849 249.600 L 114.000 249.600 114.000 247.000 L 114.000 244.400 102.033 244.400 C 88.373 244.400,88.800 244.466,88.800 242.357 L 88.800 240.800 86.467 240.800 C 85.183 240.800,84.013 240.920,83.867 241.067 " stroke="none" fill="#2c2c2c" fill-rule="evenodd"></path><path id="path2" d="M130.195 196.000 C 130.195 231.530,130.242 246.065,130.300 228.300 C 130.358 210.535,130.358 181.465,130.300 163.700 C 130.242 145.935,130.195 160.470,130.195 196.000 M93.978 145.100 L 92.600 146.600 94.100 145.222 C 95.496 143.938,95.784 143.600,95.478 143.600 C 95.412 143.600,94.737 144.275,93.978 145.100 M90.100 153.476 C 90.485 153.576,91.115 153.576,91.500 153.476 C 91.885 153.375,91.570 153.293,90.800 153.293 C 90.030 153.293,89.715 153.375,90.100 153.476 M303.491 155.489 C 304.201 155.577,305.461 155.579,306.291 155.492 C 307.121 155.405,306.540 155.333,305.000 155.331 C 303.460 155.329,302.781 155.400,303.491 155.489 M311.762 167.000 C 311.762 170.520,311.824 171.906,311.898 170.081 C 311.972 168.256,311.972 165.376,311.897 163.681 C 311.822 161.986,311.761 163.480,311.762 167.000 M109.293 180.800 C 109.293 181.570,109.375 181.885,109.476 181.500 C 109.576 181.115,109.576 180.485,109.476 180.100 C 109.375 179.715,109.293 180.030,109.293 180.800 M95.328 194.000 C 95.328 195.430,95.401 196.015,95.489 195.300 C 95.578 194.585,95.578 193.415,95.489 192.700 C 95.401 191.985,95.328 192.570,95.328 194.000 M172.700 201.496 C 174.075 201.574,176.325 201.574,177.700 201.496 C 179.075 201.418,177.950 201.354,175.200 201.354 C 172.450 201.354,171.325 201.418,172.700 201.496 M90.500 205.487 C 91.105 205.578,92.095 205.578,92.700 205.487 C 93.305 205.395,92.810 205.320,91.600 205.320 C 90.390 205.320,89.895 205.395,90.500 205.487 M104.900 211.897 C 106.605 211.972,109.395 211.972,111.100 211.897 C 112.805 211.822,111.410 211.761,108.000 211.761 C 104.590 211.761,103.195 211.822,104.900 211.897 M336.548 216.800 C 336.548 219.110,336.614 220.055,336.695 218.900 C 336.776 217.745,336.776 215.855,336.695 214.700 C 336.614 213.545,336.548 214.490,336.548 216.800 M92.000 214.000 L 89.400 214.262 91.876 214.331 C 93.238 214.369,94.464 214.220,94.600 214.000 C 94.736 213.780,94.792 213.631,94.724 213.669 C 94.656 213.707,93.430 213.856,92.000 214.000 M86.517 232.297 C 88.011 232.374,90.351 232.374,91.717 232.296 C 93.082 232.218,91.860 232.155,89.000 232.155 C 86.140 232.156,85.022 232.220,86.517 232.297 M102.800 232.271 C 108.092 232.560,114.311 232.575,114.139 232.300 C 114.037 232.135,110.948 232.034,107.276 232.076 C 103.604 232.117,101.590 232.205,102.800 232.271 M85.107 240.290 C 85.826 240.379,86.906 240.377,87.507 240.286 C 88.108 240.195,87.520 240.122,86.200 240.124 C 84.880 240.126,84.388 240.201,85.107 240.290 M261.775 248.500 L 260.600 249.800 261.900 248.625 C 262.615 247.979,263.200 247.394,263.200 247.325 C 263.200 247.016,262.870 247.288,261.775 248.500 M102.000 250.000 L 89.800 250.218 101.876 250.309 C 109.596 250.367,114.042 250.256,114.200 250.000 C 114.336 249.780,114.392 249.641,114.324 249.691 C 114.256 249.741,108.710 249.880,102.000 250.000 " stroke="none" fill="#84847c" fill-rule="evenodd"></path><path id="path3" d="M99.902 131.500 L 129.605 131.605 129.502 196.203 C 129.446 231.731,129.535 260.800,129.700 260.800 C 129.865 260.800,130.000 231.640,130.000 196.000 L 130.000 131.200 100.100 131.297 L 70.200 131.395 99.902 131.500 M146.662 137.500 C 146.560 137.665,151.662 137.800,158.000 137.800 C 164.338 137.800,169.440 137.665,169.338 137.500 C 169.236 137.335,164.134 137.200,158.000 137.200 C 151.866 137.200,146.764 137.335,146.662 137.500 M181.062 137.500 C 180.960 137.665,186.062 137.800,192.400 137.800 C 198.738 137.800,203.840 137.665,203.738 137.500 C 203.636 137.335,198.534 137.200,192.400 137.200 C 186.266 137.200,181.164 137.335,181.062 137.500 M213.280 137.680 C 212.756 138.204,212.618 224.297,213.135 228.200 C 213.281 229.300,213.400 209.410,213.400 184.000 L 213.400 137.800 224.400 137.800 L 235.400 137.800 235.603 182.400 L 235.805 227.000 235.903 182.580 C 235.977 148.455,235.889 138.049,235.520 137.680 C 234.836 136.996,213.964 136.996,213.280 137.680 M247.384 137.700 C 247.280 137.975,247.241 157.280,247.299 180.600 L 247.404 223.000 247.502 180.294 L 247.600 137.587 258.500 137.694 L 269.400 137.800 269.603 182.800 L 269.805 227.800 269.903 182.743 C 269.991 141.968,269.940 137.663,269.367 137.443 C 268.039 136.933,247.585 137.173,247.384 137.700 M279.248 137.743 C 278.917 138.141,278.824 153.741,278.899 196.243 L 279.000 254.200 296.928 254.304 C 306.789 254.361,315.386 254.271,316.033 254.104 C 316.680 253.937,308.657 253.855,298.204 253.922 L 279.197 254.043 279.299 195.922 L 279.400 137.800 295.800 137.593 L 312.200 137.387 295.949 137.293 C 282.670 137.217,279.616 137.299,279.248 137.743 M315.233 137.749 C 315.325 137.831,316.300 138.001,317.400 138.128 C 318.749 138.284,319.074 138.249,318.400 138.020 C 317.401 137.680,314.918 137.468,315.233 137.749 M104.300 138.289 C 105.015 138.378,106.185 138.378,106.900 138.289 C 107.615 138.201,107.030 138.128,105.600 138.128 C 104.170 138.128,103.585 138.201,104.300 138.289 M86.900 138.996 C 86.185 139.307,85.600 139.651,85.600 139.760 C 85.600 139.870,86.185 139.722,86.900 139.432 C 87.615 139.141,88.470 138.805,88.800 138.684 C 89.333 138.488,89.333 138.461,88.800 138.447 C 88.470 138.438,87.615 138.686,86.900 138.996 M92.140 141.600 C 92.140 143.470,92.209 144.235,92.293 143.300 C 92.377 142.365,92.377 140.835,92.293 139.900 C 92.209 138.965,92.140 139.730,92.140 141.600 M95.381 143.237 C 93.070 145.457,91.344 147.212,91.546 147.137 C 92.019 146.960,100.091 139.200,99.802 139.200 C 99.682 139.200,97.692 141.017,95.381 143.237 M83.996 141.300 C 83.351 142.357,82.839 143.794,83.331 143.167 C 83.926 142.406,85.215 140.000,85.027 140.000 C 84.896 140.000,84.432 140.585,83.996 141.300 M324.943 140.494 C 327.752 142.407,329.302 143.846,330.434 145.593 C 331.909 147.869,332.336 148.210,331.369 146.339 C 330.483 144.626,327.226 141.428,325.561 140.636 C 324.812 140.280,324.534 140.216,324.943 140.494 M114.400 145.600 C 114.400 147.213,114.499 148.434,114.621 148.313 C 114.917 148.017,114.927 143.194,114.633 142.899 C 114.505 142.771,114.400 143.987,114.400 145.600 M82.914 146.200 C 82.917 147.300,82.995 147.703,83.087 147.095 C 83.179 146.486,83.177 145.586,83.082 145.095 C 82.987 144.603,82.911 145.100,82.914 146.200 M105.905 144.683 C 106.402 144.779,107.122 144.775,107.505 144.675 C 107.887 144.575,107.480 144.496,106.600 144.501 C 105.720 144.505,105.407 144.587,105.905 144.683 M89.067 145.067 C 88.677 145.456,88.741 146.716,89.163 146.977 C 89.362 147.100,89.426 146.822,89.305 146.360 C 89.176 145.866,89.316 145.372,89.643 145.165 C 89.949 144.971,90.005 144.809,89.767 144.806 C 89.528 144.803,89.213 144.920,89.067 145.067 M99.399 148.706 C 97.639 150.408,95.839 152.028,95.399 152.306 C 94.960 152.584,95.140 152.552,95.800 152.235 C 96.832 151.739,103.317 145.589,102.790 145.606 C 102.685 145.609,101.160 147.004,99.399 148.706 M102.400 150.176 C 102.400 151.813,102.535 153.236,102.700 153.338 C 102.865 153.440,103.000 152.101,103.000 150.362 C 103.000 148.623,102.865 147.200,102.700 147.200 C 102.535 147.200,102.400 148.539,102.400 150.176 M83.201 149.033 C 83.204 149.526,84.726 152.000,85.027 152.000 C 85.158 152.000,84.859 151.325,84.363 150.500 C 83.243 148.637,83.200 148.583,83.201 149.033 M113.239 150.624 C 112.777 151.407,112.580 151.936,112.802 151.799 C 113.236 151.531,114.534 149.200,114.250 149.200 C 114.156 149.200,113.701 149.841,113.239 150.624 M333.668 152.800 C 333.688 153.839,334.318 155.546,334.332 154.600 C 334.338 154.160,334.189 153.440,334.000 153.000 C 333.789 152.510,333.661 152.432,333.668 152.800 M87.600 153.182 C 87.930 153.405,88.545 153.591,88.967 153.594 C 89.990 153.602,89.671 153.373,88.200 153.044 C 87.324 152.848,87.162 152.885,87.600 153.182 M92.800 153.200 C 91.976 153.464,91.941 153.526,92.600 153.554 C 93.040 153.573,93.670 153.413,94.000 153.200 C 94.701 152.747,94.214 152.747,92.800 153.200 M108.400 153.200 C 107.596 153.457,107.557 153.523,108.200 153.532 C 108.640 153.538,109.360 153.389,109.800 153.200 C 110.819 152.762,109.768 152.762,108.400 153.200 M87.400 155.600 C 86.896 155.817,86.822 155.944,87.200 155.944 C 87.530 155.944,88.160 155.789,88.600 155.600 C 89.104 155.383,89.178 155.256,88.800 155.256 C 88.470 155.256,87.840 155.411,87.400 155.600 M108.600 155.600 C 109.040 155.789,109.670 155.944,110.000 155.944 C 110.378 155.944,110.304 155.817,109.800 155.600 C 109.360 155.411,108.730 155.256,108.400 155.256 C 108.022 155.256,108.096 155.383,108.600 155.600 M301.695 168.300 L 301.800 181.400 304.905 181.517 C 306.613 181.581,308.266 181.491,308.578 181.317 C 308.890 181.143,307.533 181.063,305.562 181.140 L 301.978 181.280 302.089 168.240 C 302.150 161.068,302.063 155.200,301.895 155.200 C 301.727 155.200,301.637 161.095,301.695 168.300 M85.247 156.652 C 84.345 157.284,82.965 159.898,83.337 160.270 C 83.438 160.371,83.730 159.818,83.986 159.041 C 84.243 158.264,84.936 157.268,85.526 156.827 C 86.811 155.868,86.576 155.721,85.247 156.652 M111.681 156.691 C 112.275 157.060,113.077 157.948,113.463 158.665 C 113.849 159.382,114.231 159.902,114.312 159.821 C 114.892 159.241,111.979 155.975,110.914 156.011 C 110.741 156.016,111.086 156.323,111.681 156.691 M310.751 157.405 C 311.218 158.276,311.621 159.441,311.646 159.994 C 311.678 160.678,311.752 160.775,311.876 160.297 C 312.121 159.360,311.316 156.994,310.531 156.343 C 310.082 155.970,310.145 156.274,310.751 157.405 M334.600 165.970 C 334.600 171.344,334.714 175.214,334.853 174.570 C 335.194 172.988,335.208 160.248,334.870 158.000 C 334.722 157.010,334.600 160.597,334.600 165.970 M89.216 162.181 C 88.951 162.500,88.796 163.085,88.872 163.481 C 89.019 164.245,107.715 164.844,108.453 164.107 C 108.623 163.938,104.347 163.851,98.951 163.914 L 89.141 164.027 89.270 163.116 C 89.362 162.473,89.753 162.130,90.600 161.950 C 91.755 161.704,91.761 161.693,90.749 161.647 C 90.171 161.621,89.481 161.861,89.216 162.181 M114.544 166.400 C 114.544 168.490,114.612 169.345,114.694 168.300 C 114.776 167.255,114.776 165.545,114.694 164.500 C 114.612 163.455,114.544 164.310,114.544 166.400 M90.900 170.700 C 95.245 170.764,102.355 170.764,106.700 170.700 C 111.045 170.635,107.490 170.582,98.800 170.582 C 90.110 170.582,86.555 170.635,90.900 170.700 M112.305 172.683 C 112.802 172.779,113.522 172.775,113.905 172.675 C 114.287 172.575,113.880 172.496,113.000 172.501 C 112.120 172.505,111.807 172.587,112.305 172.683 M104.800 173.200 C 103.163 173.454,103.127 173.483,104.400 173.510 C 105.170 173.527,106.610 173.397,107.600 173.220 C 109.997 172.794,107.528 172.776,104.800 173.200 M114.528 175.600 C 114.528 177.030,114.601 177.615,114.689 176.900 C 114.778 176.185,114.778 175.015,114.689 174.300 C 114.601 173.585,114.528 174.170,114.528 175.600 M311.664 174.250 C 311.629 174.938,311.511 176.108,311.401 176.850 L 311.203 178.200 311.624 176.858 C 311.855 176.120,311.973 174.950,311.886 174.258 L 311.728 173.000 311.664 174.250 M96.400 174.000 C 94.763 174.254,94.727 174.283,96.000 174.310 C 96.770 174.327,98.210 174.197,99.200 174.020 C 101.597 173.594,99.128 173.576,96.400 174.000 M88.200 174.800 C 86.853 175.041,86.790 175.091,87.800 175.114 C 88.460 175.129,89.810 174.997,90.800 174.820 C 92.415 174.533,92.456 174.501,91.200 174.507 C 90.430 174.511,89.080 174.642,88.200 174.800 M333.829 177.429 C 333.681 178.015,333.651 178.584,333.761 178.694 C 333.871 178.804,334.081 178.415,334.229 177.829 C 334.376 177.242,334.406 176.673,334.296 176.563 C 334.186 176.453,333.976 176.842,333.829 177.429 M111.200 178.688 C 110.650 178.787,110.043 179.018,109.852 179.202 C 109.660 179.386,110.200 179.385,111.052 179.199 C 111.903 179.014,113.050 178.782,113.600 178.685 C 114.459 178.534,114.431 178.509,113.400 178.509 C 112.740 178.509,111.750 178.590,111.200 178.688 M101.600 179.646 L 99.800 179.916 101.800 179.870 C 104.941 179.797,105.056 181.487,101.925 181.704 L 99.800 181.852 102.100 181.926 C 104.387 182.000,104.400 181.993,104.400 180.843 C 104.400 179.467,103.983 179.289,101.600 179.646 M93.800 180.197 C 93.580 180.270,92.860 180.462,92.200 180.622 L 91.000 180.915 92.000 181.218 C 92.550 181.384,93.810 181.515,94.800 181.507 C 96.559 181.495,96.568 181.488,95.200 181.218 C 93.711 180.923,93.817 180.850,96.600 180.262 C 97.040 180.169,96.680 180.086,95.800 180.078 C 94.920 180.070,94.020 180.123,93.800 180.197 M109.885 182.413 C 110.251 182.743,114.616 183.282,114.291 182.958 C 114.172 182.839,113.061 182.604,111.822 182.435 C 110.583 182.267,109.712 182.257,109.885 182.413 M330.000 184.740 C 329.010 185.790,327.750 186.966,327.200 187.354 C 326.229 188.041,326.234 188.041,327.400 187.378 C 328.917 186.514,330.258 185.307,331.266 183.900 C 332.384 182.341,332.065 182.552,330.000 184.740 M114.528 186.000 C 114.528 187.430,114.601 188.015,114.689 187.300 C 114.778 186.585,114.778 185.415,114.689 184.700 C 114.601 183.985,114.528 184.570,114.528 186.000 M88.400 186.820 C 89.390 186.997,90.740 187.132,91.400 187.120 C 92.285 187.105,92.128 187.016,90.800 186.780 C 89.810 186.603,88.460 186.468,87.800 186.480 C 86.915 186.495,87.072 186.584,88.400 186.820 M96.600 187.618 C 99.347 188.046,101.631 188.012,99.200 187.580 C 98.210 187.403,96.770 187.270,96.000 187.283 C 94.855 187.303,94.965 187.364,96.600 187.618 M104.800 188.420 C 107.350 188.874,109.621 188.836,107.400 188.377 C 106.520 188.195,105.170 188.058,104.400 188.073 C 103.095 188.098,103.122 188.122,104.800 188.420 M112.305 189.083 C 112.802 189.179,113.522 189.175,113.905 189.075 C 114.287 188.975,113.880 188.896,113.000 188.901 C 112.120 188.905,111.807 188.987,112.305 189.083 M110.300 190.289 C 111.015 190.378,112.185 190.378,112.900 190.289 C 113.615 190.201,113.030 190.128,111.600 190.128 C 110.170 190.128,109.585 190.201,110.300 190.289 M83.471 190.683 C 83.363 190.857,84.563 191.000,86.137 191.000 L 89.000 191.000 89.121 193.600 C 89.188 195.030,89.368 196.327,89.521 196.481 C 89.675 196.636,89.710 195.376,89.600 193.681 L 89.400 190.600 86.534 190.483 C 84.958 190.419,83.579 190.509,83.471 190.683 M107.930 193.582 C 107.859 195.332,107.921 196.637,108.069 196.482 C 108.429 196.105,108.674 190.398,108.330 190.399 C 108.182 190.400,108.002 191.832,107.930 193.582 M95.471 191.083 C 95.362 191.257,96.607 191.341,98.237 191.268 L 101.200 191.137 101.200 193.745 C 101.200 195.179,101.335 196.437,101.500 196.539 C 101.665 196.642,101.710 195.437,101.600 193.863 L 101.400 191.000 98.534 190.883 C 96.958 190.819,95.579 190.909,95.471 191.083 M114.561 196.800 C 114.561 200.210,114.622 201.605,114.697 199.900 C 114.772 198.195,114.772 195.405,114.697 193.700 C 114.622 191.995,114.561 193.390,114.561 196.800 M330.017 193.404 C 330.778 194.286,331.723 195.456,332.117 196.004 C 332.809 196.965,332.810 196.954,332.124 195.688 C 331.733 194.966,330.788 193.796,330.023 193.088 L 328.634 191.800 330.017 193.404 M301.783 200.100 C 301.677 200.375,301.640 208.070,301.700 217.200 L 301.809 233.800 301.905 216.916 L 302.000 200.032 305.300 199.898 L 308.600 199.763 305.287 199.681 C 302.943 199.624,301.919 199.746,301.783 200.100 M309.836 200.757 C 310.516 201.171,311.461 202.296,311.936 203.255 C 312.411 204.215,312.800 204.766,312.800 204.480 C 312.801 203.031,310.258 199.997,309.046 200.001 C 308.801 200.002,309.156 200.342,309.836 200.757 M169.862 201.100 C 169.760 201.265,172.162 201.400,175.200 201.400 C 178.238 201.400,180.640 201.265,180.538 201.100 C 180.436 200.935,178.034 200.800,175.200 200.800 C 172.366 200.800,169.964 200.935,169.862 201.100 M334.456 201.600 C 334.456 201.930,334.611 202.560,334.800 203.000 C 335.017 203.504,335.144 203.578,335.144 203.200 C 335.144 202.870,334.989 202.240,334.800 201.800 C 334.583 201.296,334.456 201.222,334.456 201.600 M91.526 203.500 C 95.776 203.564,102.616 203.564,106.726 203.499 C 110.837 203.434,107.360 203.381,99.000 203.381 C 90.640 203.382,87.277 203.435,91.526 203.500 M335.472 206.200 C 335.599 207.300,335.769 208.275,335.851 208.367 C 336.132 208.682,335.920 206.199,335.580 205.200 C 335.351 204.526,335.316 204.851,335.472 206.200 M88.600 205.156 C 87.937 205.301,89.155 205.414,91.322 205.409 C 93.479 205.404,94.829 205.283,94.322 205.140 C 93.148 204.809,90.155 204.817,88.600 205.156 M313.000 216.942 C 313.000 223.488,313.117 228.429,313.260 227.922 C 313.594 226.740,313.587 207.782,313.253 206.220 C 313.114 205.571,313.000 210.396,313.000 216.942 M84.560 206.960 C 83.812 207.708,83.207 208.653,83.216 209.060 C 83.226 209.535,83.432 209.338,83.793 208.508 C 84.102 207.797,84.950 206.853,85.677 206.409 C 86.405 205.966,86.757 205.602,86.460 205.601 C 86.163 205.601,85.308 206.212,84.560 206.960 M96.904 206.529 L 98.009 207.570 99.460 206.585 C 100.258 206.043,100.731 205.600,100.510 205.600 C 100.289 205.600,99.646 205.963,99.082 206.407 C 98.458 206.898,97.958 207.056,97.806 206.809 C 97.668 206.587,97.160 206.198,96.678 205.946 C 95.972 205.578,96.017 205.693,96.904 206.529 M114.520 208.800 C 114.520 210.010,114.595 210.505,114.687 209.900 C 114.778 209.295,114.778 208.305,114.687 207.700 C 114.595 207.095,114.520 207.590,114.520 208.800 M336.165 217.200 C 336.165 221.050,336.225 222.625,336.298 220.700 C 336.371 218.775,336.371 215.625,336.298 213.700 C 336.225 211.775,336.165 213.350,336.165 217.200 M89.680 211.680 C 89.416 211.944,89.200 212.574,89.200 213.080 C 89.200 214.246,94.223 214.527,94.661 213.385 C 95.291 211.744,91.063 210.297,89.680 211.680 M93.920 212.080 C 95.000 213.160,94.444 213.600,92.000 213.600 C 89.660 213.600,88.818 212.916,89.867 211.867 C 90.322 211.411,93.414 211.574,93.920 212.080 M100.667 212.267 C 100.172 212.761,100.395 213.913,101.033 214.157 C 102.147 214.585,114.471 214.438,114.200 214.000 C 114.051 213.759,111.314 213.600,107.330 213.600 C 100.904 213.600,100.713 213.576,100.916 212.800 C 101.139 211.946,101.091 211.843,100.667 212.267 M114.528 217.200 C 114.528 218.630,114.601 219.215,114.689 218.500 C 114.778 217.785,114.778 216.615,114.689 215.900 C 114.601 215.185,114.528 215.770,114.528 217.200 M83.200 220.500 C 83.200 220.665,90.220 220.800,98.800 220.800 C 107.380 220.800,114.400 220.665,114.400 220.500 C 114.400 220.335,107.380 220.200,98.800 220.200 C 90.220 220.200,83.200 220.335,83.200 220.500 M83.461 223.100 C 83.292 223.373,95.116 223.367,108.800 223.086 C 111.770 223.025,107.326 222.936,98.924 222.888 C 90.522 222.839,83.564 222.935,83.461 223.100 M114.528 226.000 C 114.528 227.430,114.601 228.015,114.689 227.300 C 114.778 226.585,114.778 225.415,114.689 224.700 C 114.601 223.985,114.528 224.570,114.528 226.000 M246.640 228.040 C 246.493 228.957,246.452 229.785,246.547 229.880 C 246.642 229.976,246.846 229.310,247.000 228.400 C 247.154 227.490,247.196 226.662,247.093 226.560 C 246.990 226.457,246.787 227.123,246.640 228.040 M335.660 227.250 C 335.627 227.828,335.511 228.907,335.401 229.650 L 335.203 231.000 335.624 229.657 C 335.855 228.919,335.972 227.839,335.882 227.257 L 335.720 226.200 335.660 227.250 M236.068 228.600 C 236.062 229.040,236.211 229.760,236.400 230.200 C 236.838 231.219,236.838 230.168,236.400 228.800 C 236.143 227.996,236.077 227.957,236.068 228.600 M83.199 229.279 C 83.200 229.432,85.712 229.612,88.781 229.679 C 91.851 229.746,94.236 229.675,94.081 229.522 C 93.709 229.155,83.198 228.919,83.199 229.279 M104.520 229.498 C 106.455 229.572,109.515 229.571,111.320 229.497 C 113.124 229.423,111.540 229.363,107.800 229.364 C 104.060 229.364,102.584 229.425,104.520 229.498 M100.400 230.800 C 100.400 231.460,100.549 232.000,100.731 232.000 C 100.913 232.000,100.982 231.460,100.885 230.800 C 100.788 230.140,100.640 229.600,100.555 229.600 C 100.470 229.600,100.400 230.140,100.400 230.800 M269.033 231.633 C 268.883 232.766,268.841 233.774,268.939 233.872 C 269.037 233.971,269.245 233.128,269.400 232.000 C 269.555 230.872,269.598 229.864,269.494 229.761 C 269.391 229.658,269.184 230.500,269.033 231.633 M245.061 232.228 C 244.195 233.313,244.116 233.534,244.732 233.150 C 245.376 232.747,246.668 230.800,246.291 230.800 C 246.241 230.800,245.687 231.443,245.061 232.228 M310.600 231.812 C 309.940 232.353,309.594 232.797,309.830 232.798 C 310.067 232.799,310.683 232.350,311.200 231.800 C 312.385 230.538,312.148 230.543,310.600 231.812 M236.989 231.600 C 238.134 233.665,240.489 234.672,242.607 234.004 L 243.800 233.627 242.600 233.656 C 239.627 233.727,239.097 233.575,237.888 232.300 C 237.211 231.585,236.806 231.270,236.989 231.600 M213.628 232.433 C 213.644 232.965,213.819 233.760,214.019 234.200 C 214.271 234.758,214.307 234.515,214.138 233.400 C 213.855 231.543,213.587 231.036,213.628 232.433 M334.650 233.250 C 334.509 233.953,334.469 234.602,334.559 234.692 C 334.650 234.783,334.848 234.291,335.000 233.600 C 335.152 232.909,335.193 232.259,335.091 232.158 C 334.989 232.056,334.791 232.547,334.650 233.250 M114.528 235.600 C 114.528 237.030,114.601 237.615,114.689 236.900 C 114.778 236.185,114.778 235.015,114.689 234.300 C 114.601 233.585,114.528 234.170,114.528 235.600 M303.507 233.890 C 304.226 233.979,305.306 233.977,305.907 233.886 C 306.508 233.795,305.920 233.722,304.600 233.724 C 303.280 233.726,302.788 233.801,303.507 233.890 M268.229 235.829 C 268.081 236.415,268.038 236.972,268.132 237.066 C 268.227 237.160,268.424 236.758,268.571 236.171 C 268.719 235.585,268.762 235.028,268.668 234.934 C 268.573 234.840,268.376 235.242,268.229 235.829 M214.456 236.000 C 214.456 236.330,214.611 236.960,214.800 237.400 C 215.017 237.904,215.144 237.978,215.144 237.600 C 215.144 237.270,214.989 236.640,214.800 236.200 C 214.583 235.696,214.456 235.622,214.456 236.000 M333.829 236.629 C 333.681 237.215,333.638 237.772,333.732 237.866 C 333.827 237.960,334.024 237.558,334.171 236.971 C 334.319 236.385,334.362 235.828,334.268 235.734 C 334.173 235.640,333.976 236.042,333.829 236.629 M91.526 238.700 C 95.776 238.764,102.616 238.764,106.726 238.699 C 110.837 238.634,107.360 238.581,99.000 238.581 C 90.640 238.582,87.277 238.635,91.526 238.700 M88.667 240.310 C 88.925 240.473,89.211 241.235,89.303 242.003 C 89.464 243.334,89.475 243.320,89.536 241.700 C 89.588 240.321,89.468 240.001,88.900 240.006 C 88.441 240.010,88.361 240.115,88.667 240.310 M265.882 242.211 C 265.292 243.415,264.894 244.400,264.998 244.400 C 265.267 244.400,267.284 240.351,267.105 240.171 C 267.023 240.089,266.473 241.007,265.882 242.211 M331.256 243.408 C 330.527 244.816,329.208 246.830,328.325 247.884 L 326.721 249.800 328.475 247.956 C 330.071 246.277,333.084 241.350,332.730 240.997 C 332.649 240.916,331.986 242.001,331.256 243.408 M217.400 243.600 C 217.741 244.260,218.111 244.800,218.221 244.800 C 218.331 244.800,218.141 244.260,217.800 243.600 C 217.459 242.940,217.089 242.400,216.979 242.400 C 216.869 242.400,217.059 242.940,217.400 243.600 M95.725 243.899 C 99.204 243.966,104.784 243.966,108.125 243.899 C 111.466 243.832,108.620 243.778,101.800 243.778 C 94.980 243.778,92.246 243.833,95.725 243.899 M114.528 246.800 C 114.528 248.230,114.601 248.815,114.689 248.100 C 114.778 247.385,114.778 246.215,114.689 245.500 C 114.601 244.785,114.528 245.370,114.528 246.800 M262.026 247.716 C 259.983 250.004,259.845 250.228,261.358 248.800 C 263.013 247.238,265.102 244.768,264.727 244.816 C 264.657 244.825,263.442 246.130,262.026 247.716 M219.113 246.200 C 220.392 248.078,224.913 252.000,225.798 252.000 C 225.975 252.000,225.328 251.448,224.360 250.774 C 223.392 250.099,221.631 248.524,220.447 247.274 C 219.263 246.023,218.663 245.540,219.113 246.200 M325.200 250.400 C 324.650 250.830,324.397 251.186,324.638 251.191 C 324.879 251.196,325.402 250.840,325.800 250.400 C 326.712 249.392,326.488 249.392,325.200 250.400 M89.467 250.667 C 89.320 250.813,89.200 251.526,89.200 252.250 L 89.200 253.566 86.199 253.710 L 83.197 253.854 86.299 253.827 L 89.400 253.800 89.627 252.100 C 89.752 251.165,89.827 250.400,89.794 250.400 C 89.760 250.400,89.613 250.520,89.467 250.667 M318.800 253.200 C 317.976 253.464,317.941 253.526,318.600 253.554 C 319.040 253.573,319.670 253.413,320.000 253.200 C 320.701 252.747,320.214 252.747,318.800 253.200 M152.100 254.299 C 155.345 254.366,160.655 254.366,163.900 254.299 C 167.145 254.232,164.490 254.177,158.000 254.177 C 151.510 254.177,148.855 254.232,152.100 254.299 M186.500 254.299 C 189.745 254.366,195.055 254.366,198.300 254.299 C 201.545 254.232,198.890 254.177,192.400 254.177 C 185.910 254.177,183.255 254.232,186.500 254.299 M233.600 254.780 C 234.599 255.120,237.082 255.332,236.767 255.051 C 236.675 254.969,235.700 254.799,234.600 254.672 C 233.251 254.516,232.926 254.551,233.600 254.780 M247.600 254.800 C 246.233 255.088,246.228 255.095,247.400 255.119 C 248.060 255.133,248.960 254.989,249.400 254.800 C 250.362 254.387,249.564 254.387,247.600 254.800 M240.307 255.490 C 241.026 255.579,242.106 255.577,242.707 255.486 C 243.308 255.395,242.720 255.322,241.400 255.324 C 240.080 255.326,239.588 255.401,240.307 255.490 " stroke="none" fill="#8c8c87" fill-rule="evenodd"></path><path id="path4" d="M70.185 131.300 C 70.080 131.575,70.041 160.870,70.097 196.400 L 70.200 261.000 99.977 261.103 C 116.355 261.159,129.891 261.069,130.058 260.903 C 130.224 260.736,116.869 260.647,100.380 260.705 L 70.400 260.810 70.400 196.000 L 70.400 131.190 100.362 131.295 C 116.841 131.353,130.240 131.265,130.138 131.100 C 129.791 130.539,70.399 130.737,70.185 131.300 M146.200 137.694 C 146.079 138.192,146.030 164.700,146.090 196.600 L 146.200 254.600 158.000 254.600 L 169.800 254.600 169.903 228.422 C 169.983 208.113,170.117 202.165,170.503 201.891 C 170.868 201.632,170.841 201.582,170.400 201.703 C 169.876 201.846,169.787 205.183,169.697 228.133 L 169.594 254.400 157.996 254.400 L 146.397 254.400 146.499 195.900 L 146.600 137.400 158.096 137.294 L 169.593 137.188 169.696 158.094 L 169.800 179.000 175.200 179.000 L 180.600 179.000 180.704 158.094 L 180.807 137.188 192.304 137.294 L 203.800 137.400 203.901 195.900 L 204.003 254.400 192.404 254.400 L 180.806 254.400 180.703 228.133 C 180.613 205.183,180.524 201.846,180.000 201.703 C 179.559 201.582,179.532 201.632,179.897 201.891 C 180.283 202.165,180.417 208.113,180.497 228.422 L 180.600 254.600 192.400 254.600 L 204.200 254.600 204.310 196.600 C 204.370 164.700,204.321 138.192,204.200 137.694 L 203.982 136.788 192.291 136.894 L 180.600 137.000 180.496 157.900 L 180.393 178.800 175.200 178.800 L 170.007 178.800 169.904 157.900 L 169.800 137.000 158.109 136.894 L 146.418 136.788 146.200 137.694 M213.062 137.100 C 212.960 137.265,218.062 137.400,224.400 137.400 C 230.738 137.400,235.840 137.265,235.738 137.100 C 235.636 136.935,230.534 136.800,224.400 136.800 C 218.266 136.800,213.164 136.935,213.062 137.100 M247.006 137.694 C 246.736 138.849,246.532 228.002,246.800 227.734 C 246.910 227.624,247.090 207.254,247.200 182.467 L 247.400 137.400 258.600 137.400 L 269.800 137.400 269.800 184.800 C 269.800 210.870,269.936 230.971,270.102 229.468 C 270.268 227.965,270.358 206.545,270.302 181.868 L 270.200 137.000 258.709 136.894 L 247.218 136.788 247.006 137.694 M278.880 137.280 C 278.047 138.113,278.198 254.237,279.033 254.557 C 279.381 254.691,287.706 254.758,297.533 254.706 L 315.400 254.612 297.200 254.406 L 279.000 254.200 279.000 195.800 L 279.000 137.400 296.400 137.194 L 313.800 136.987 296.580 136.894 C 283.614 136.823,279.241 136.919,278.880 137.280 M314.905 137.487 C 315.514 137.579,316.414 137.577,316.905 137.482 C 317.397 137.387,316.900 137.311,315.800 137.314 C 314.700 137.317,314.297 137.395,314.905 137.487 M212.593 181.800 C 212.593 206.000,212.641 215.841,212.700 203.669 C 212.759 191.497,212.759 171.697,212.700 159.669 C 212.641 147.641,212.593 157.600,212.593 181.800 M236.132 182.600 C 236.103 207.240,236.197 227.816,236.340 228.325 C 236.578 229.172,236.541 167.236,236.291 146.600 C 236.232 141.760,236.160 157.960,236.132 182.600 M89.000 138.819 C 88.438 139.073,88.659 139.109,89.744 138.938 C 90.836 138.766,91.390 138.856,91.638 139.247 C 91.915 139.686,91.989 139.655,91.994 139.100 C 92.001 138.323,90.422 138.174,89.000 138.819 M102.119 138.718 C 101.854 138.886,102.934 138.965,104.519 138.894 C 108.847 138.698,109.389 138.515,105.800 138.461 C 104.040 138.434,102.383 138.550,102.119 138.718 M111.000 139.667 C 111.440 139.910,112.169 140.400,112.619 140.755 C 113.070 141.110,112.932 140.905,112.313 140.300 C 111.694 139.695,110.965 139.205,110.694 139.212 C 110.422 139.219,110.560 139.423,111.000 139.667 M84.801 140.998 C 84.286 141.548,83.939 142.064,84.032 142.146 C 84.124 142.228,84.619 141.778,85.130 141.147 C 86.276 139.735,86.074 139.644,84.801 140.998 M96.151 143.065 C 94.540 144.750,92.722 146.459,92.111 146.862 C 91.500 147.265,91.252 147.596,91.560 147.597 C 91.868 147.599,93.848 145.892,95.960 143.805 C 98.072 141.718,99.638 140.008,99.440 140.005 C 99.242 140.002,97.761 141.379,96.151 143.065 M326.000 140.666 C 327.840 141.934,331.010 145.384,331.727 146.900 C 332.452 148.432,332.980 148.964,332.520 147.700 C 331.718 145.497,328.025 141.414,325.935 140.421 C 325.074 140.012,325.079 140.031,326.000 140.666 M83.443 143.433 C 82.532 145.806,83.447 149.851,85.245 151.401 C 86.014 152.064,85.987 151.973,85.086 150.869 C 83.717 149.191,83.463 148.166,83.679 145.185 C 83.861 142.656,83.830 142.423,83.443 143.433 M91.600 143.933 C 91.600 144.190,91.096 144.400,90.480 144.400 C 89.141 144.400,88.385 145.059,88.440 146.180 C 88.473 146.866,88.525 146.837,88.756 146.000 C 88.958 145.268,89.350 144.965,90.216 144.869 C 91.501 144.727,92.310 144.176,91.873 143.740 C 91.723 143.590,91.600 143.677,91.600 143.933 M104.044 144.433 C 103.518 144.644,101.522 146.305,99.609 148.126 C 97.696 149.947,95.516 151.740,94.765 152.109 C 94.014 152.479,93.642 152.786,93.938 152.791 C 94.797 152.805,96.760 151.297,100.217 147.967 C 103.526 144.778,104.790 144.165,107.437 144.467 C 110.051 144.766,109.032 146.978,106.214 147.123 C 103.130 147.281,102.800 147.595,102.800 150.369 C 102.800 152.886,103.259 153.623,104.780 153.553 C 105.727 153.509,105.714 153.487,104.600 153.249 C 103.416 152.996,103.400 152.957,103.400 150.396 L 103.400 147.800 105.786 147.677 C 108.433 147.542,109.200 147.127,109.200 145.831 C 109.200 144.105,106.616 143.404,104.044 144.433 M114.060 147.126 C 113.993 148.617,113.497 149.733,112.250 151.200 L 111.400 152.200 112.468 151.260 C 113.811 150.079,114.511 148.420,114.291 146.943 C 114.127 145.847,114.117 145.854,114.060 147.126 M333.656 151.200 C 333.656 151.530,333.811 152.160,334.000 152.600 C 334.217 153.104,334.344 153.178,334.344 152.800 C 334.344 152.470,334.189 151.840,334.000 151.400 C 333.783 150.896,333.656 150.822,333.656 151.200 M89.500 153.089 C 90.215 153.178,91.385 153.178,92.100 153.089 C 92.815 153.001,92.230 152.928,90.800 152.928 C 89.370 152.928,88.785 153.001,89.500 153.089 M106.900 153.076 C 107.285 153.176,107.915 153.176,108.300 153.076 C 108.685 152.975,108.370 152.893,107.600 152.893 C 106.830 152.893,106.515 152.975,106.900 153.076 M334.495 154.800 C 334.495 155.350,334.632 156.340,334.800 157.000 C 335.072 158.070,335.105 158.092,335.105 157.200 C 335.105 156.650,334.968 155.660,334.800 155.000 C 334.528 153.930,334.495 153.908,334.495 154.800 M94.700 155.498 C 96.955 155.570,100.645 155.570,102.900 155.498 C 105.155 155.427,103.310 155.369,98.800 155.369 C 94.290 155.369,92.445 155.427,94.700 155.498 M302.094 168.300 L 302.200 181.000 305.200 181.039 L 308.200 181.078 305.400 180.839 L 302.600 180.600 302.600 168.100 C 302.600 161.225,302.462 155.600,302.294 155.600 C 302.126 155.600,302.036 161.315,302.094 168.300 M85.393 157.300 C 84.474 158.156,83.930 159.078,83.800 160.000 L 83.603 161.400 84.037 160.000 C 84.567 158.295,85.043 157.689,86.600 156.737 C 87.260 156.333,87.572 156.002,87.294 156.001 C 87.016 156.001,86.160 156.585,85.393 157.300 M309.746 156.829 C 310.326 157.285,310.814 157.960,310.832 158.329 C 310.853 158.789,310.930 158.834,311.074 158.471 C 311.295 157.919,309.743 156.000,309.076 156.000 C 308.865 156.000,309.166 156.373,309.746 156.829 M112.434 157.847 C 112.965 158.533,113.480 159.023,113.579 158.935 C 113.677 158.847,113.243 158.286,112.613 157.688 L 111.469 156.600 112.434 157.847 M311.369 167.400 C 311.370 172.020,311.428 173.855,311.499 171.478 C 311.570 169.101,311.569 165.321,311.498 163.078 C 311.427 160.835,311.369 162.780,311.369 167.400 M113.932 164.836 L 114.064 170.000 98.845 170.000 L 83.627 170.000 83.491 165.700 L 83.355 161.400 83.378 165.800 L 83.400 170.200 98.900 170.305 L 114.400 170.409 114.394 165.505 C 114.391 162.807,114.256 160.391,114.094 160.136 C 113.932 159.881,113.859 161.996,113.932 164.836 M335.365 166.400 C 335.365 170.250,335.425 171.825,335.498 169.900 C 335.571 167.975,335.571 164.825,335.498 162.900 C 335.425 160.975,335.365 162.550,335.365 166.400 M89.336 161.506 C 89.081 161.668,92.141 161.753,96.136 161.695 C 107.760 161.527,108.924 161.360,99.000 161.283 C 93.940 161.244,89.591 161.344,89.336 161.506 M108.846 163.293 L 108.800 164.386 98.700 164.500 L 88.600 164.614 98.713 164.707 C 109.457 164.806,109.563 164.788,109.080 162.923 C 108.957 162.447,108.877 162.574,108.846 163.293 M108.600 173.214 C 107.657 173.392,108.437 173.428,110.500 173.303 L 114.000 173.090 114.000 175.517 C 114.000 177.710,113.913 177.963,113.100 178.138 C 112.307 178.308,112.319 178.323,113.200 178.266 C 114.149 178.203,114.206 178.061,114.318 175.500 L 114.437 172.800 112.318 172.857 C 111.153 172.888,109.480 173.049,108.600 173.214 M102.900 173.887 C 103.505 173.978,104.495 173.978,105.100 173.887 C 105.705 173.795,105.210 173.720,104.000 173.720 C 102.790 173.720,102.295 173.795,102.900 173.887 M99.700 174.276 C 100.085 174.376,100.715 174.376,101.100 174.276 C 101.485 174.175,101.170 174.093,100.400 174.093 C 99.630 174.093,99.315 174.175,99.700 174.276 M94.500 174.687 C 95.105 174.778,96.095 174.778,96.700 174.687 C 97.305 174.595,96.810 174.520,95.600 174.520 C 94.390 174.520,93.895 174.595,94.500 174.687 M334.622 175.822 C 334.472 176.625,334.428 177.362,334.526 177.460 C 334.624 177.557,334.827 176.981,334.978 176.178 C 335.128 175.375,335.172 174.638,335.074 174.540 C 334.976 174.443,334.773 175.019,334.622 175.822 M91.300 175.076 C 91.685 175.176,92.315 175.176,92.700 175.076 C 93.085 174.975,92.770 174.893,92.000 174.893 C 91.230 174.893,90.915 174.975,91.300 175.076 M86.100 175.487 C 86.705 175.578,87.695 175.578,88.300 175.487 C 88.905 175.395,88.410 175.320,87.200 175.320 C 85.990 175.320,85.495 175.395,86.100 175.487 M83.443 176.233 C 83.072 177.199,83.166 184.927,83.556 185.542 C 83.775 185.887,84.897 186.133,86.650 186.219 L 89.400 186.353 86.971 186.044 C 83.507 185.603,83.600 185.748,83.600 180.796 C 83.600 177.069,83.701 176.381,84.300 176.032 C 84.921 175.670,84.926 175.623,84.343 175.612 C 83.981 175.605,83.576 175.885,83.443 176.233 M109.280 178.880 C 107.802 180.358,109.094 183.387,111.076 183.089 C 112.158 182.926,112.152 182.918,110.908 182.860 C 108.979 182.770,108.454 179.158,110.300 178.676 C 110.838 178.535,110.856 178.482,110.380 178.446 C 110.039 178.421,109.544 178.616,109.280 178.880 M309.546 179.616 C 308.966 180.267,308.624 180.800,308.784 180.800 C 309.093 180.800,310.085 179.740,310.563 178.900 C 311.015 178.105,310.681 178.340,309.546 179.616 M96.800 179.600 L 94.200 179.862 96.400 179.901 C 97.610 179.923,99.410 179.797,100.400 179.620 C 102.704 179.210,100.775 179.200,96.800 179.600 M104.200 180.800 C 104.200 181.680,104.335 182.400,104.500 182.400 C 104.665 182.400,104.800 181.680,104.800 180.800 C 104.800 179.920,104.665 179.200,104.500 179.200 C 104.335 179.200,104.200 179.920,104.200 180.800 M89.500 180.432 C 88.351 181.102,88.702 181.602,90.300 181.572 C 91.472 181.550,91.625 181.473,91.000 181.220 C 90.297 180.936,90.370 180.846,91.600 180.484 L 93.000 180.072 91.600 180.048 C 90.830 180.035,89.885 180.208,89.500 180.432 M333.200 180.693 C 333.200 180.928,332.564 182.065,331.787 183.220 C 331.009 184.375,330.660 185.082,331.010 184.792 C 331.904 184.050,333.749 180.815,333.449 180.515 C 333.312 180.379,333.200 180.459,333.200 180.693 M93.233 181.747 C 93.325 181.827,95.470 181.988,98.000 182.104 C 101.054 182.244,101.861 182.208,100.400 181.997 C 98.127 181.669,92.939 181.487,93.233 181.747 M113.933 185.777 L 114.066 188.356 111.933 188.504 L 109.800 188.652 112.100 188.726 L 114.400 188.800 114.400 186.000 C 114.400 184.460,114.265 183.200,114.100 183.199 C 113.935 183.199,113.860 184.359,113.933 185.777 M328.400 186.860 C 327.630 187.535,327.362 187.905,327.804 187.681 C 328.535 187.311,330.347 185.578,329.962 185.616 C 329.873 185.625,329.170 186.185,328.400 186.860 M91.300 186.676 C 91.685 186.776,92.315 186.776,92.700 186.676 C 93.085 186.575,92.770 186.493,92.000 186.493 C 91.230 186.493,90.915 186.575,91.300 186.676 M94.500 187.087 C 95.105 187.178,96.095 187.178,96.700 187.087 C 97.305 186.995,96.810 186.920,95.600 186.920 C 94.390 186.920,93.895 186.995,94.500 187.087 M100.400 187.606 C 102.219 187.944,106.274 188.124,105.967 187.853 C 105.875 187.772,104.180 187.608,102.200 187.489 C 99.663 187.336,99.131 187.370,100.400 187.606 M107.700 188.276 C 108.085 188.376,108.715 188.376,109.100 188.276 C 109.485 188.175,109.170 188.093,108.400 188.093 C 107.630 188.093,107.315 188.175,107.700 188.276 M324.400 189.136 C 324.400 189.528,326.418 190.515,326.682 190.251 C 326.780 190.153,326.487 189.954,326.030 189.810 C 325.574 189.665,325.200 189.378,325.200 189.173 C 325.200 188.968,325.020 188.800,324.800 188.800 C 324.580 188.800,324.400 188.951,324.400 189.136 M108.683 190.650 C 108.527 190.806,108.400 192.253,108.400 193.867 L 108.400 196.800 104.818 196.800 L 101.237 196.800 101.118 194.100 L 101.000 191.400 98.200 191.368 L 95.400 191.336 98.082 191.486 L 100.764 191.636 100.882 194.318 L 101.000 197.000 104.800 197.000 L 108.600 197.000 108.717 193.900 L 108.834 190.800 111.417 190.800 L 114.000 190.800 114.000 196.800 L 114.000 202.800 98.789 202.800 L 83.578 202.800 83.689 197.100 L 83.800 191.400 86.200 191.400 L 88.600 191.400 88.721 193.990 C 88.789 195.436,89.054 196.714,89.321 196.884 C 89.942 197.278,95.096 197.292,95.339 196.900 C 95.442 196.735,94.147 196.600,92.463 196.600 L 89.400 196.600 89.279 194.010 C 89.139 191.025,88.933 190.814,86.149 190.806 C 83.237 190.797,83.158 190.981,83.288 197.455 L 83.400 203.000 98.800 203.000 L 114.200 203.000 114.200 196.800 L 114.200 190.600 111.583 190.484 C 110.144 190.420,108.839 190.495,108.683 190.650 M331.194 194.203 C 332.787 196.121,332.921 196.245,332.486 195.396 C 332.259 194.953,331.652 194.234,331.137 193.798 C 330.233 193.034,330.235 193.048,331.194 194.203 M302.183 200.501 C 302.077 200.776,302.038 208.291,302.095 217.201 L 302.200 233.400 305.000 233.390 C 308.210 233.379,310.373 232.530,311.430 230.866 C 312.074 229.852,312.041 229.861,310.753 231.046 C 309.079 232.589,307.315 233.200,304.540 233.200 L 302.400 233.200 302.400 216.771 L 302.400 200.341 305.763 200.471 C 307.613 200.542,309.042 200.465,308.940 200.300 C 308.606 199.764,302.395 199.948,302.183 200.501 M312.268 205.400 C 312.571 207.377,312.802 207.714,312.794 206.167 C 312.791 205.525,312.616 204.730,312.405 204.400 C 312.145 203.991,312.101 204.310,312.268 205.400 M86.652 205.916 C 86.544 206.090,87.073 206.161,87.828 206.073 C 88.583 205.985,89.200 205.842,89.200 205.756 C 89.200 205.455,86.845 205.603,86.652 205.916 M95.033 206.030 C 95.710 206.227,96.593 206.751,96.995 207.194 C 97.899 208.193,98.055 208.193,99.200 207.200 C 99.707 206.760,99.974 206.400,99.793 206.400 C 99.611 206.400,99.141 206.692,98.747 207.048 C 98.081 207.651,97.942 207.622,96.784 206.648 C 96.099 206.072,95.147 205.616,94.669 205.636 C 94.004 205.664,94.089 205.756,95.033 206.030 M100.936 205.901 C 100.681 206.065,103.516 206.143,107.236 206.074 L 114.000 205.947 114.000 208.574 L 114.000 211.200 108.100 211.206 C 102.107 211.212,100.459 211.540,100.086 212.800 C 99.982 213.150,100.164 213.066,100.521 212.600 C 101.083 211.867,101.688 211.789,107.784 211.673 L 114.434 211.546 114.317 208.673 L 114.200 205.800 107.800 205.701 C 104.280 205.646,101.191 205.736,100.936 205.901 M84.598 207.202 C 83.575 208.332,84.010 208.437,85.086 207.320 C 85.573 206.814,85.826 206.400,85.648 206.400 C 85.470 206.400,84.997 206.761,84.598 207.202 M336.101 207.800 C 336.105 208.680,336.187 208.993,336.283 208.495 C 336.379 207.998,336.375 207.278,336.275 206.895 C 336.175 206.513,336.096 206.920,336.101 207.800 M312.972 217.400 C 312.972 222.460,313.029 224.475,313.099 221.877 C 313.169 219.280,313.168 215.140,313.098 212.677 C 313.028 210.215,312.971 212.340,312.972 217.400 M336.509 211.200 C 336.509 212.190,336.587 212.595,336.682 212.100 C 336.778 211.605,336.778 210.795,336.682 210.300 C 336.587 209.805,336.509 210.210,336.509 211.200 M83.280 214.851 C 83.174 220.990,81.534 220.429,99.247 220.305 L 114.200 220.200 114.226 217.400 L 114.252 214.600 114.109 217.305 L 113.965 220.010 98.882 219.905 L 83.800 219.800 83.580 215.000 L 83.361 210.200 83.280 214.851 M91.105 211.083 C 91.602 211.179,92.322 211.175,92.705 211.075 C 93.087 210.975,92.680 210.896,91.800 210.901 C 90.920 210.905,90.607 210.987,91.105 211.083 M94.182 211.737 C 94.693 212.111,94.855 212.599,94.714 213.337 C 94.602 213.922,94.666 214.400,94.855 214.400 C 95.045 214.400,95.200 213.896,95.200 213.280 C 95.200 212.153,94.579 211.200,93.844 211.200 C 93.625 211.200,93.778 211.442,94.182 211.737 M336.520 222.800 C 336.520 224.010,336.595 224.505,336.687 223.900 C 336.778 223.295,336.778 222.305,336.687 221.700 C 336.595 221.095,336.520 221.590,336.520 222.800 M83.471 223.462 C 83.098 223.835,83.140 228.086,83.522 228.687 C 83.733 229.019,85.484 229.211,89.016 229.287 L 94.200 229.400 94.200 230.800 L 94.200 232.200 88.905 232.312 C 82.870 232.439,83.028 232.329,83.275 236.227 L 83.400 238.200 98.800 238.200 L 114.200 238.200 114.200 235.400 L 114.200 232.600 107.629 232.490 C 103.612 232.422,100.852 232.209,100.529 231.941 C 100.192 231.662,100.000 231.650,100.000 231.908 C 100.000 232.656,101.229 232.800,107.633 232.800 L 114.000 232.800 114.000 235.400 L 114.000 238.000 98.781 238.000 L 83.562 238.000 83.681 235.500 L 83.800 233.000 88.775 232.887 C 94.089 232.766,94.804 232.525,94.794 230.851 C 94.783 228.941,94.488 228.832,88.984 228.713 L 83.800 228.600 83.681 226.100 L 83.562 223.600 98.781 223.600 L 114.000 223.600 114.000 226.191 L 114.000 228.781 107.133 228.891 C 101.450 228.981,100.232 229.104,100.068 229.600 C 99.907 230.088,99.981 230.108,100.464 229.710 C 100.865 229.379,103.183 229.185,107.629 229.110 L 114.200 229.000 114.200 226.200 L 114.200 223.400 98.971 223.295 C 90.596 223.238,83.621 223.313,83.471 223.462 M336.114 227.000 C 336.117 228.100,336.195 228.503,336.287 227.895 C 336.379 227.286,336.377 226.386,336.282 225.895 C 336.187 225.403,336.111 225.900,336.114 227.000 M212.893 229.200 C 212.893 229.970,212.975 230.285,213.076 229.900 C 213.176 229.515,213.176 228.885,213.076 228.500 C 212.975 228.115,212.893 228.430,212.893 229.200 M246.032 229.320 C 245.972 230.688,244.743 232.462,243.474 233.015 C 242.773 233.319,242.491 233.576,242.846 233.584 C 244.377 233.621,246.807 230.455,246.272 229.120 C 246.140 228.793,246.051 228.867,246.032 229.320 M236.825 229.920 C 236.746 231.551,239.219 233.973,240.461 233.478 C 240.784 233.349,240.668 233.251,240.170 233.232 C 239.213 233.195,237.829 231.853,237.249 230.400 C 237.030 229.850,236.839 229.634,236.825 229.920 M213.293 232.000 C 213.293 232.770,213.375 233.085,213.476 232.700 C 213.576 232.315,213.576 231.685,213.476 231.300 C 213.375 230.915,213.293 231.230,213.293 232.000 M213.668 234.400 C 213.688 235.439,214.318 237.146,214.332 236.200 C 214.338 235.760,214.189 235.040,214.000 234.600 C 213.789 234.110,213.661 234.032,213.668 234.400 M334.600 235.200 C 334.448 235.891,334.407 236.541,334.509 236.642 C 334.611 236.744,334.809 236.253,334.950 235.550 C 335.091 234.847,335.131 234.198,335.041 234.108 C 334.950 234.017,334.752 234.509,334.600 235.200 M268.229 237.429 C 268.081 238.015,268.038 238.572,268.132 238.666 C 268.227 238.760,268.424 238.358,268.571 237.771 C 268.719 237.185,268.762 236.628,268.668 236.534 C 268.573 236.440,268.376 236.842,268.229 237.429 M333.309 239.493 C 331.774 243.863,331.876 243.500,332.418 242.650 C 333.041 241.672,334.487 237.554,334.279 237.346 C 334.191 237.258,333.754 238.224,333.309 239.493 M83.397 241.282 C 82.881 243.366,83.373 253.327,84.000 253.498 C 84.456 253.622,84.477 253.574,84.089 253.300 C 83.704 253.028,83.605 251.463,83.689 246.970 L 83.800 241.000 86.300 240.881 L 88.800 240.762 88.800 242.338 C 88.800 244.469,88.357 244.400,102.033 244.400 L 114.000 244.400 114.000 247.000 L 114.000 249.600 101.849 249.600 C 92.609 249.600,89.602 249.720,89.296 250.100 C 88.791 250.729,88.450 253.600,88.880 253.600 C 89.056 253.600,89.200 252.880,89.200 252.000 C 89.200 251.120,89.245 250.362,89.300 250.315 C 89.355 250.268,94.980 250.133,101.800 250.015 L 114.200 249.800 114.200 247.000 L 114.200 244.200 101.800 244.000 L 89.400 243.800 89.200 242.200 L 89.000 240.600 86.312 240.482 C 83.796 240.372,83.610 240.423,83.397 241.282 M265.400 244.000 C 265.059 244.660,264.869 245.200,264.979 245.200 C 265.089 245.200,265.459 244.660,265.800 244.000 C 266.141 243.340,266.331 242.800,266.221 242.800 C 266.111 242.800,265.741 243.340,265.400 244.000 M217.449 244.500 C 218.273 246.101,223.330 251.139,225.100 252.123 C 227.090 253.229,226.646 252.641,224.405 251.203 C 222.230 249.807,218.721 246.182,217.775 244.352 C 217.447 243.718,217.089 243.200,216.979 243.200 C 216.869 243.200,217.081 243.785,217.449 244.500 M331.025 244.752 C 330.697 245.385,329.502 246.960,328.369 248.252 L 326.309 250.600 328.553 248.283 C 330.537 246.234,332.375 243.600,331.821 243.600 C 331.711 243.600,331.353 244.118,331.025 244.752 M261.800 248.528 C 259.823 250.556,259.494 251.012,260.681 250.081 C 262.055 249.004,265.220 245.526,264.734 245.628 C 264.660 245.643,263.340 246.948,261.800 248.528 M323.800 251.634 C 322.700 252.265,321.942 252.786,322.116 252.791 C 322.631 252.806,325.525 251.246,325.796 250.806 C 326.112 250.296,326.182 250.267,323.800 251.634 M256.093 252.580 C 254.839 253.272,254.462 253.701,255.412 253.355 C 256.398 252.995,257.914 251.986,257.389 252.039 C 257.175 252.061,256.592 252.304,256.093 252.580 M316.800 254.000 C 316.008 254.254,315.967 254.320,316.600 254.320 C 317.040 254.320,317.850 254.176,318.400 254.000 C 319.192 253.746,319.233 253.680,318.600 253.680 C 318.160 253.680,317.350 253.824,316.800 254.000 M249.800 254.800 C 248.781 255.238,249.832 255.238,251.200 254.800 C 252.004 254.543,252.043 254.477,251.400 254.468 C 250.960 254.462,250.240 254.611,249.800 254.800 M235.100 255.482 C 235.595 255.578,236.405 255.578,236.900 255.482 C 237.395 255.387,236.990 255.309,236.000 255.309 C 235.010 255.309,234.605 255.387,235.100 255.482 M241.600 255.600 L 237.800 255.847 241.200 255.888 C 243.070 255.911,245.500 255.790,246.600 255.618 C 249.123 255.225,247.459 255.219,241.600 255.600 " stroke="none" fill="#6c6c67" fill-rule="evenodd"></path></g></svg>